<svg width="32" height="32" viewBox="0 0 32 32" fill="none" xmlns="http://www.w3.org/2000/svg">
<g clip-path="url(#clip0_1_3)">
<rect width="32" height="32"/>
<path d="M22 17.8889V20.3333H20.7143V21.5556H19.4286V22.7778H18.1429V24H16.8571V22.7778H15.5714V21.5556H14.2857V20.3333H13V17.8889H14.2857V19.1111H15.5714V20.3333H16.8571V13H18.1429V20.3333H19.4286V19.1111H20.7143V17.8889H22Z" fill="#240DA7"/>
<path d="M29.7727 16.4V15.2H27.3182V12.8H26.0909V11.6H24.8636V10.4H21.1818V11.6H19.9545V9.2H18.7273V8H12.5909V9.2H11.3636V10.4H10.1364V11.6H8.90909V15.2H5.22727V16.4H4V22.4H5.22727V23.6H6.45455V24.8H8.90909V26H26.0909V24.8H28.5455V23.6H29.7727V22.4H31V16.4H29.7727ZM29.7727 21.2H28.5455V22.4H27.3182V23.6H24.8636V24.8H10.1364V23.6H7.68182V22.4H6.45455V21.2H5.22727V17.6H6.45455V16.4H10.1364V12.8H11.3636V11.6H12.5909V10.4H13.8182V9.2H17.5V10.4H18.7273V12.8H22.4091V11.6H23.6364V12.8H24.8636V14H26.0909V16.4H28.5455V17.6H29.7727V21.2Z" fill="#240DA7"/>
</g>
<defs>
<clipPath id="clip0_1_3">
<rect width="32" height="32" fill="white"/>
</clipPath>
</defs>
</svg>
